<svg xmlns="http://www.w3.org/2000/svg" version="1.1" xmlns:xlink="http://www.w3.org/1999/xlink" xmlns:svgjs="http://svgjs.dev/svgjs" width="1000" height="227" viewBox="0 0 1000 227"><g transform="matrix(1,0,0,1,-0.6060606060605096,-0.19133844501256192)"><svg viewBox="0 0 396 90" data-background-color="#ffffff" preserveAspectRatio="xMidYMid meet" height="227" width="1000" xmlns="http://www.w3.org/2000/svg" xmlns:xlink="http://www.w3.org/1999/xlink"><g id="tight-bounds" transform="matrix(1,0,0,1,0.23999999999995225,0.07586105749396665)"><svg viewBox="0 0 395.52 89.84827788501204" height="89.84827788501204" width="395.52"><g><svg viewBox="0 0 581.2319972154054 132.03553297297302" height="89.84827788501204" width="395.52"><g><rect width="8.61584705077622" height="96.01715675675676" x="154.5415767332778" y="18.009188108108127" fill="#8bc53f" opacity="1" stroke-width="0" stroke="transparent" fill-opacity="1" class="rect-r$-0" data-fill-palette-color="primary" rx="1%" id="r$-0" data-palette-color="#8bc53f"></rect></g><g transform="matrix(1,0,0,1,185.71199721540535,18.24803675675677)"><svg viewBox="0 0 395.52 95.53945945945948" height="95.53945945945948" width="395.52"><g id="textblocktransform"><svg viewBox="0 0 395.52 95.53945945945948" height="95.53945945945948" width="395.52" id="textblock"><g><svg viewBox="0 0 395.52 95.53945945945948" height="95.53945945945948" width="395.52"><g transform="matrix(1,0,0,1,0,0)"><svg width="395.52" viewBox="1.1 -44.4 273.81999999999994 64.35" height="95.53945945945948" data-palette-color="#8bc53f"><g class="wordmark-text-0" data-fill-palette-color="primary" id="text-0"><path d="M1.9 0Q1.6 0 1.6-0.6L1.6-0.6Q1.6-1.3 1.98-1.9 2.35-2.5 3.15-3.2L3.15-3.2Q3.95-4 4.3-4.45 4.65-4.9 4.93-5.75 5.2-6.6 5.6-8.35L5.6-8.35 10.15-30.25 9.85-30.25Q9.6-30.25 8.8-30.35L8.8-30.35Q7.8-30.55 6.7-30.55L6.7-30.55Q5.25-30.55 4.28-30.15 3.3-29.75 2.5-28.7L2.5-28.7Q2.25-28.35 2-28.13 1.75-27.9 1.55-27.9L1.55-27.9Q1.1-27.9 1.1-28.4L1.1-28.4Q1.1-28.9 1.2-29.2L1.2-29.2Q1.7-31.75 3.65-33.23 5.6-34.7 8.55-34.7L8.55-34.7Q9.15-34.7 10.45-34.6L10.45-34.6Q11.6-34.45 12.85-34.45L12.85-34.45Q13.3-34.45 15.1-34.6L15.1-34.6Q16-34.7 16.35-34.7L16.35-34.7Q16.25-33.4 16.25-32.45L16.25-32.45Q16.25-30.6 16.7-28.18 17.15-25.75 18.15-21.4L18.15-21.4 19.7-14.75Q20.05-13.75 20.15-13L20.15-13Q25.3-22.3 26.98-25.53 28.65-28.75 29.8-31.25L29.8-31.25Q30.4-32.45 30.75-33.25L30.75-33.25Q32.75-37.35 34.38-39.45 36-41.55 38.25-42.65L38.25-42.65Q39.75-43.4 41.45-43.65 43.15-43.9 45.4-43.9L45.4-43.9Q46.55-43.9 47.1-44.1L47.1-44.1Q47.45-44.2 47.7-44.3 47.95-44.4 48.1-44.4L48.1-44.4Q48.5-44.4 48.5-43.85L48.5-43.85Q48.5-42.8 47.25-41.8 46-40.8 44.6-40.8L44.6-40.8Q42.95-40.75 41.9-40.6 40.85-40.45 39.85-40L39.85-40Q37.95-39.1 36.95-36.75 35.95-34.4 35.3-29.75L35.3-29.75Q34.95-27.6 34.68-24.95 34.4-22.3 34.15-19.45L34.15-19.45Q33.5-12.15 32.9-7.3L32.9-7.3Q32.85-6.35 32.52-5.58 32.2-4.8 31.75-4.4L31.75-4.4 31.75-4.35Q32.75-3.85 33.75-3.85L33.75-3.85Q34.45-3.85 35.18-4.13 35.9-4.4 36.1-4.4L36.1-4.4Q36.3-4.4 36.38-4.3 36.45-4.2 36.45-3.9L36.45-3.9Q36.45-3.25 35.85-2.6L35.85-2.6Q33.85 0 31.95 0L31.95 0Q31.25 0 30-0.35L30-0.35Q29.85-0.4 29.05-0.6 28.25-0.8 27.45-0.8L27.45-0.8Q26.4-0.8 25.48-0.4 24.55 0 24.35 0L24.35 0Q24 0 24-0.6L24-0.6Q24-1.95 25.6-3.2L25.6-3.2 26.5-3.9Q27.1-4.35 27.33-4.63 27.55-4.9 27.6-5.5L27.6-5.5 27.7-6.55Q28.5-15.25 28.8-17.53 29.1-19.8 29.45-22.95L29.45-22.95 29.4-22.95Q27.3-19.6 25.05-15.2 22.8-10.8 21.4-7.2L21.4-7.2Q20.3-5.35 18.82-3.6 17.35-1.85 16.8-1.85L16.8-1.85Q16.65-1.85 16.57-2.02 16.5-2.2 16.5-2.5L16.5-2.5Q16.1-6.1 15.88-7.78 15.65-9.45 14.9-12.85L14.9-12.85Q14.55-14.35 13.88-17.25 13.2-20.15 12.9-21.75L12.9-21.75 12.85-21.8 9.8-6.65Q9.75-6.5 9.47-5.58 9.2-4.65 8.8-4.3L8.8-4.3 8.8-4.2Q9.75-3.85 10.6-3.85L10.6-3.85Q11.35-3.85 11.93-4.13 12.5-4.4 12.7-4.4L12.7-4.4Q13.1-4.4 13.1-3.9L13.1-3.9Q13.1-3.45 12.5-2.6L12.5-2.6Q11.4-1.1 10.6-0.55 9.8 0 8.8 0L8.8 0Q8.1 0 7.1-0.4L7.1-0.4Q5.9-0.8 5.1-0.8L5.1-0.8Q3.95-0.8 3-0.4 2.05 0 1.9 0L1.9 0ZM46.2 0.5Q43.6 0.5 42.12-1.28 40.65-3.05 40.65-6.25L40.65-6.25Q40.65-10 42.57-14.13 44.5-18.25 47.47-21.03 50.45-23.8 53.45-23.8L53.45-23.8Q55.1-23.8 56.07-22.85 57.05-21.9 57.05-20.1L57.05-20.1Q57.05-17.85 55.6-15.48 54.15-13.1 51.62-11.08 49.1-9.05 45.95-7.8L45.95-7.8Q46.1-4.35 49-4.35L49-4.35Q50.6-4.35 52.02-5.35 53.45-6.35 54.55-8.05L54.55-8.05Q54.8-8.5 55-8.72 55.2-8.95 55.4-8.95L55.4-8.95Q55.7-8.95 55.8-8.75 55.9-8.55 55.9-8.05L55.9-8.05Q55.9-6.45 54.47-4.4 53.05-2.35 50.8-0.93 48.55 0.5 46.2 0.5L46.2 0.5ZM47.2-11.9Q48.3-11.9 49.45-12.68 50.6-13.45 51.35-14.7 52.1-15.95 52.1-17.4L52.1-17.4Q52.1-19.2 50.65-19.2L50.65-19.2Q49.1-19.2 47.85-17.25 46.6-15.3 46.25-12.05L46.25-12.05Q46.55-11.9 47.2-11.9L47.2-11.9ZM61.45 0.5Q60.65 0.5 60.65-0.05L60.65-0.05Q60.65-0.25 60.9-1.1L60.9-1.1Q61.15-1.75 61.6-3.6L61.6-3.6Q61.95-5.05 62.6-8.85 63.25-12.65 63.8-16.25L63.8-16.25Q64.05-17.85 64.05-18.3L64.05-18.3Q64.05-19.05 63.6-19.05L63.6-19.05Q63.15-19.05 62.45-18.28 61.75-17.5 60.95-16L60.95-16Q60.75-15.6 60.5-15.28 60.25-14.95 60-14.95L60-14.95Q59.5-14.95 59.5-15.8L59.5-15.8Q59.5-17.15 60.67-19.07 61.85-21 63.57-22.4 65.3-23.8 66.9-23.8L66.9-23.8Q67.9-23.8 68.5-23.1 69.1-22.4 69.1-20.9L69.1-20.9Q69.1-18.95 68.7-16.45L68.7-16.45 68.75-16.45Q74.1-23.8 77.75-23.8L77.75-23.8Q80.3-23.8 80.3-20.25L80.3-20.25Q80.3-18.7 79.85-16.45L79.85-16.45Q78.65-10.6 78.2-8.18 77.75-5.75 77.75-5.25L77.75-5.25Q77.75-4.2 78.35-4.2L78.35-4.2Q79.75-4.2 81.2-8.1L81.2-8.1Q81.5-8.8 81.85-8.8L81.85-8.8Q82.45-8.8 82.35-7.55L82.35-7.55Q82.15-5.8 81.05-3.9 79.95-2 78.32-0.75 76.7 0.5 75.05 0.5L75.05 0.5Q72.6 0.5 72.6-2.8L72.6-2.8Q72.6-4.1 72.9-5.95 73.2-7.8 73.8-10.7L73.8-10.7Q74.2-12.65 74.52-14.6 74.85-16.55 74.9-17.75L74.9-17.75 74.9-18.15Q74.9-18.95 74.4-18.95L74.4-18.95Q73.55-18.95 72.05-17.18 70.55-15.4 69.22-12.75 67.9-10.1 67.4-7.65L67.4-7.65 66.6-3.6Q66.3-2.1 64.67-0.8 63.05 0.5 61.45 0.5L61.45 0.5ZM90.49 0.5Q87.89 0.5 87.89-3.45L87.89-3.45Q87.89-4.95 88.34-7.65L88.34-7.65 89.89-16.8Q90.09-17.8 90.09-18.5L90.09-18.5Q90.09-19.15 89.64-19.15L89.64-19.15Q89.14-19.15 88.57-18.48 87.99-17.8 86.99-16L86.99-16Q86.79-15.6 86.54-15.28 86.29-14.95 86.04-14.95L86.04-14.95Q85.54-14.95 85.54-15.8L85.54-15.8Q85.54-17.1 86.74-19.03 87.94-20.95 89.67-22.38 91.39-23.8 92.99-23.8L92.99-23.8Q94.09-23.8 94.67-23.13 95.24-22.45 95.24-21.2L95.24-21.2Q95.24-20.9 95.14-20.2L95.14-20.2 92.99-5.85 92.99-5.35Q92.99-4.95 93.09-4.78 93.19-4.6 93.49-4.6L93.49-4.6Q94.64-4.6 96.22-6.45 97.79-8.3 99.14-11.18 100.49-14.05 101.04-17L101.04-17 101.54-19.6Q101.89-21.45 103.39-22.63 104.89-23.8 106.69-23.8L106.69-23.8Q107.09-23.8 107.27-23.7 107.44-23.6 107.44-23.3L107.44-23.3Q107.44-23.1 107.19-22.5 106.94-21.9 106.64-20.25L106.64-20.25Q106.19-18.5 104.09-7.2L104.09-7.2Q103.84-6.1 103.84-5.15L103.84-5.15Q103.84-4.2 104.44-4.2L104.44-4.2Q105.24-4.2 105.79-5.08 106.34-5.95 107.39-8.1L107.39-8.1Q107.64-8.8 107.99-8.8L107.99-8.8Q108.44-8.8 108.44-7.95L108.44-7.95Q108.44-6.3 107.37-4.3 106.29-2.3 104.59-0.9 102.89 0.5 101.19 0.5L101.19 0.5Q98.84 0.5 98.84-2.45L98.84-2.45Q98.84-3.85 99.34-6.5L99.34-6.5 99.24-6.55Q97.29-3.6 94.94-1.55 92.59 0.5 90.49 0.5L90.49 0.5Z" fill="#8bc53f" data-fill-palette-color="primary"></path><path d="M145.89 0.5Q144.44 0.5 143.06-1.25 141.69-3 139.59-6.95L139.59-6.95 135.04-15.7 133.49-6.4Q133.24-4.9 132.34-4.15L132.34-4.15 132.34-4.1Q132.94-3.8 134.24-3.8L134.24-3.8Q134.99-3.8 135.61-4.08 136.24-4.35 136.44-4.35L136.44-4.35Q136.84-4.35 136.84-3.9L136.84-3.9Q136.84-3.35 136.29-2.55L136.29-2.55Q135.19-1 134.36-0.45 133.54 0.1 132.59 0.1L132.59 0.1Q131.99 0.1 130.59-0.3L130.59-0.3Q129.19-0.7 128.34-0.7L128.34-0.7Q127.24-0.7 126.29-0.3 125.34 0.1 125.19 0.1L125.19 0.1Q124.84 0.1 124.84-0.5L124.84-0.5Q124.84-1.2 125.24-1.78 125.64-2.35 126.39-3.1L126.39-3.1Q127.49-4.1 127.91-5.13 128.34-6.15 128.74-8.7L128.74-8.7 132.24-30.25Q131.94-30.25 131.01-30.4 130.09-30.55 129.14-30.55L129.14-30.55Q127.69-30.55 126.71-30.15 125.74-29.75 124.94-28.7L124.94-28.7Q124.69-28.35 124.44-28.13 124.19-27.9 123.94-27.9L123.94-27.9Q123.54-27.9 123.54-28.4L123.54-28.4Q123.54-28.75 123.61-29.05 123.69-29.35 123.69-29.45L123.69-29.45Q124.14-31.7 125.26-32.77 126.39-33.85 128.04-34.15 129.69-34.45 132.49-34.45L132.49-34.45 135.29-34.45Q135.69-34.45 137.34-34.6L137.34-34.6Q138.14-34.7 138.54-34.7L138.54-34.7Q137.69-31.85 136.99-28L136.99-28 136.14-22.5 142.64-30.4Q146.04-34.45 148.54-36.93 151.04-39.4 153.74-41.05L153.74-41.05Q156.09-42.55 158.06-42.98 160.04-43.4 162.74-43.5L162.74-43.5Q163.84-43.5 164.39-43.7L164.39-43.7Q164.74-43.8 164.99-43.9 165.24-44 165.39-44L165.39-44Q165.84-44 165.84-43.45L165.84-43.45Q165.84-42.45 164.69-41.45 163.54-40.45 161.94-40.35L161.94-40.35Q160.14-40.25 158.79-39.83 157.44-39.4 155.54-38L155.54-38Q152.14-35.5 148.24-30.75L148.24-30.75 138.69-19.2 145.09-7.65Q145.94-6.1 146.49-5.48 147.04-4.85 147.74-4.85L147.74-4.85Q148.64-4.85 149.41-5.7 150.19-6.55 150.69-7.45L150.69-7.45Q151.04-8.05 151.29-8.28 151.54-8.5 151.84-8.5L151.84-8.5Q152.24-8.5 152.24-7.75L152.24-7.75Q152.24-6.35 151.21-4.38 150.19-2.4 148.69-0.95 147.19 0.5 145.89 0.5L145.89 0.5ZM157.89 0.5Q157.04 0.5 157.04-0.1L157.04-0.1Q157.04-0.35 157.41-1.23 157.79-2.1 158.14-3.95L158.14-3.95 158.99-8.75Q160.34-16.45 160.39-17.75L160.39-17.75 160.39-18.2Q160.39-19.05 159.94-19.05L159.94-19.05Q158.99-19.05 157.34-16L157.34-16Q157.14-15.6 156.89-15.28 156.64-14.95 156.39-14.95L156.39-14.95Q155.89-14.95 155.89-15.8L155.89-15.8Q155.89-17.1 157.06-19.03 158.24-20.95 159.96-22.38 161.69-23.8 163.29-23.8L163.29-23.8Q165.44-23.8 165.44-20.95L165.44-20.95Q165.44-20.35 165.04-16.75L165.04-16.75 165.09-16.75Q167.19-20.45 169.06-22.13 170.94-23.8 172.84-23.8L172.84-23.8Q174.14-23.8 174.94-23.05 175.74-22.3 175.74-20.9L175.74-20.9Q175.74-19.55 175.11-18.25 174.49-16.95 173.59-16.13 172.69-15.3 172.04-15.3L172.04-15.3Q171.64-15.3 171.79-15.8L171.79-15.8Q171.94-16.5 171.94-17.1L171.94-17.1Q171.94-18.4 170.79-18.4L170.79-18.4Q168.89-18.4 167.01-15.8 165.14-13.2 164.09-8.3L164.09-8.3Q163.34-5.2 163.09-3.45L163.09-3.45Q162.84-2.05 161.11-0.78 159.39 0.5 157.89 0.5L157.89 0.5ZM180.88 0.5Q178.28 0.5 176.81-1.28 175.33-3.05 175.33-6.25L175.33-6.25Q175.33-10 177.26-14.13 179.18-18.25 182.16-21.03 185.13-23.8 188.13-23.8L188.13-23.8Q189.78-23.8 190.76-22.85 191.73-21.9 191.73-20.1L191.73-20.1Q191.73-17.85 190.28-15.48 188.83-13.1 186.31-11.08 183.78-9.05 180.63-7.8L180.63-7.8Q180.78-4.35 183.68-4.35L183.68-4.35Q185.28-4.35 186.71-5.35 188.13-6.35 189.23-8.05L189.23-8.05Q189.48-8.5 189.68-8.72 189.88-8.95 190.08-8.95L190.08-8.95Q190.38-8.95 190.48-8.75 190.58-8.55 190.58-8.05L190.58-8.05Q190.58-6.45 189.16-4.4 187.73-2.35 185.48-0.93 183.23 0.5 180.88 0.5L180.88 0.5ZM181.88-11.9Q182.98-11.9 184.13-12.68 185.28-13.45 186.03-14.7 186.78-15.95 186.78-17.4L186.78-17.4Q186.78-19.2 185.33-19.2L185.33-19.2Q183.78-19.2 182.53-17.25 181.28-15.3 180.93-12.05L180.93-12.05Q181.23-11.9 181.88-11.9L181.88-11.9ZM196.73 0.5Q195.18 0.5 194.31-1.05 193.43-2.6 193.43-5.2L193.43-5.2Q193.43-9.35 195.46-13.7 197.48-18.05 200.98-20.93 204.48-23.8 208.53-23.8L208.53-23.8Q209.83-23.8 211.11-23.5 212.38-23.2 213.18-22.75L213.18-22.75Q212.73-21.65 212.58-20.95 212.43-20.25 212.38-20.05L212.38-20.05Q212.03-18.25 211.36-14.58 210.68-10.9 210.08-7.55L210.08-7.55Q209.78-6.05 209.78-5.25L209.78-5.25Q209.78-4.7 209.96-4.45 210.13-4.2 210.48-4.2L210.48-4.2Q211.33-4.2 212.03-5.23 212.73-6.25 213.53-8.1L213.53-8.1Q213.63-8.4 213.78-8.6 213.93-8.8 214.18-8.8L214.18-8.8Q214.63-8.8 214.63-8.1L214.63-8.1Q214.63-7.75 214.58-7.55L214.58-7.55Q214.33-5.65 213.28-3.78 212.23-1.9 210.71-0.7 209.18 0.5 207.58 0.5L207.58 0.5Q206.28 0.5 205.56-0.45 204.83-1.4 204.83-3L204.83-3Q204.83-3.4 204.93-4.2L204.93-4.2 205.18-5.9 205.08-5.9Q203.23-3.1 200.86-1.3 198.48 0.5 196.73 0.5L196.73 0.5ZM199.58-4.45Q200.68-4.45 202.41-6.4 204.13-8.35 205.63-11.33 207.13-14.3 207.63-17.25L207.63-17.25 207.98-19.2Q206.73-19.95 205.68-19.95L205.68-19.95Q204.08-19.95 202.46-17.98 200.83-16 199.81-12.88 198.78-9.75 198.78-6.5L198.78-6.5Q198.78-5.3 198.96-4.88 199.13-4.45 199.58-4.45L199.58-4.45ZM223.08 0.5Q221.43 0.5 220.63-0.55 219.83-1.6 219.83-3.9L219.83-3.9Q219.83-5.35 220.23-7.75L220.23-7.75 222.28-19.45 218.23-19.45Q217.68-19.45 217.45-19.58 217.23-19.7 217.23-19.95L217.23-19.95Q217.23-20.4 217.88-21.2 218.53-22 219.35-22.65 220.18-23.3 220.73-23.3L220.73-23.3 223.03-23.3 223.43-25.9Q223.78-27.75 225.5-29.2 227.23-30.65 228.88-30.65L228.88-30.65Q229.28-30.65 229.53-30.5 229.78-30.35 229.78-30.05L229.78-30.05Q229.78-29.85 229.28-28.98 228.78-28.1 228.53-26.55L228.53-26.55 227.98-23.3 232.23-23.3Q232.83-23.3 233.03-23.23 233.23-23.15 233.23-22.9L233.23-22.9Q233.23-22.4 232.53-21.58 231.83-20.75 230.93-20.1 230.03-19.45 229.58-19.45L229.58-19.45 227.33-19.45 225.33-7.55Q224.98-5.8 224.98-4.85L224.98-4.85Q224.98-4.15 225.2-3.88 225.43-3.6 225.88-3.6L225.88-3.6Q227.53-3.6 228.98-6.3L228.98-6.3Q229.13-6.65 229.28-6.83 229.43-7 229.63-7L229.63-7Q230.13-7 230.13-6.15L230.13-6.15Q230.13-4.85 229.13-3.28 228.13-1.7 226.5-0.6 224.88 0.5 223.08 0.5L223.08 0.5ZM241.13-25.5Q240.78-25.5 240.68-25.63 240.58-25.75 240.63-26.1L240.63-26.1 241.33-30.05Q241.63-31.65 242.73-32.63 243.83-33.6 245.88-33.6L245.88-33.6 246.28-33.6Q246.83-33.6 246.78-33.05L246.78-33.05 246.08-29.1Q245.48-25.5 241.48-25.5L241.48-25.5 241.13-25.5ZM239.03 0.5Q236.58 0.5 236.58-2.8L236.58-2.8Q236.58-3.7 236.83-5.2L236.83-5.2 239.23-17.3Q239.33-18.2 239.33-18.4L239.33-18.4Q239.33-19.1 238.88-19.1L238.88-19.1Q238.43-19.1 237.83-18.38 237.23-17.65 236.28-16L236.28-16Q236.23-15.9 236.05-15.58 235.88-15.25 235.73-15.1 235.58-14.95 235.43-14.95L235.43-14.95Q234.98-14.95 234.98-15.75L234.98-15.75Q234.98-17.15 236.18-19.07 237.38-21 239.18-22.4 240.98-23.8 242.68-23.8L242.68-23.8Q244.78-23.8 244.78-21L244.78-21Q244.78-20.2 244.43-18.25L244.43-18.25 241.93-5.35Q241.83-4.95 241.83-4.8L241.83-4.8Q241.83-4.2 242.38-4.2L242.38-4.2Q243.03-4.2 243.85-5.25 244.68-6.3 245.43-8.1L245.43-8.1Q245.68-8.8 246.03-8.8L246.03-8.8Q246.48-8.8 246.48-7.95L246.48-7.95Q246.48-6.2 245.33-4.23 244.18-2.25 242.45-0.88 240.73 0.5 239.03 0.5L239.03 0.5ZM244.52 19.95Q243.12 19.95 242.55 19.68 241.97 19.4 241.22 18.55L241.22 18.55Q240.17 17.2 240.17 16.5L240.17 16.5Q240.17 16 240.82 16L240.82 16Q241.22 16 242.27 16.3L242.27 16.3Q244.17 16.85 245.57 16.85L245.57 16.85Q248.07 16.85 249.62 15.85 251.17 14.85 252.15 12.35 253.12 9.85 253.82 5.1L253.82 5.1 257.47-19.2 255.12-19.2Q253.97-19.2 253.17-18.85 252.37-18.5 252.17-18.5L252.17-18.5Q251.72-18.5 251.72-18.95L251.72-18.95Q251.72-19.45 251.97-19.95L251.97-19.95Q252.57-21.35 253.8-22.33 255.02-23.3 256.37-23.3L256.37-23.3 258.12-23.3 258.22-24.2Q260.02-34.9 264.87-39.8L264.87-39.8Q266.62-41.65 268.25-42.35 269.87-43.05 271.82-43.35L271.82-43.35Q273.37-43.6 273.85-43.73 274.32-43.85 274.47-43.85L274.47-43.85Q274.92-43.85 274.92-43.3L274.92-43.3Q274.92-42.85 274.55-42.23 274.17-41.6 273.62-41.05L273.62-41.05Q273.12-40.55 272.57-40.43 272.02-40.3 271.17-40.3L271.17-40.3Q269.17-40.3 267.82-38.75L267.82-38.75Q266.42-37.2 265.35-33.73 264.27-30.25 263.27-24.2L263.27-24.2 263.12-23.3 265.17-23.3Q266.67-23.3 267.52-23.65 268.37-24 268.57-24L268.57-24Q269.07-24 269.07-23.5L269.07-23.5Q269.07-23.1 268.87-22.55L268.87-22.55Q268.37-21.3 267.1-20.25 265.82-19.2 264.47-19.2L264.47-19.2 262.52-19.2 259.82-1.5Q258.17 9.55 254.45 14.75 250.72 19.95 244.52 19.95L244.52 19.95Z" fill="#5d9943" data-fill-palette-color="accent"></path></g></svg></g></svg></g></svg></g></svg></g><g><svg viewBox="0 0 131.98700330192645 132.03553297297302" height="132.03553297297302" width="131.98700330192645"><g><svg xmlns="http://www.w3.org/2000/svg" xmlns:xlink="http://www.w3.org/1999/xlink" version="1.1" x="0" y="0" viewBox="0.01820386256780493 0 99.96324499174287 100" enable-background="new 0 0 100 100" xml:space="preserve" height="132.03553297297302" width="131.98700330192645" class="icon-icon-0" data-fill-palette-color="accent" id="icon-0"><g fill="#5d9943" data-fill-palette-color="accent"><path d="M73.428 5.851C66.234 2.019 58.144 0 50.039 0 31.477 0 14.542 10.186 5.846 26.566-7.075 50.918 2.212 81.241 26.562 94.161 33.768 97.979 41.848 100 49.953 100c18.573 0 35.509-10.174 44.204-26.556C107.077 49.095 97.778 18.77 73.428 5.851zM28.003 91.439C5.156 79.307-3.564 50.855 8.556 28.008 16.722 12.637 32.61 3.079 50.039 3.079c7.599 0 15.185 1.896 21.948 5.492 22.849 12.119 31.569 40.572 19.448 63.42-8.166 15.384-24.055 24.93-41.482 24.93C42.353 96.921 34.766 95.024 28.003 91.439z" fill="#5d9943" data-fill-palette-color="accent"></path><path d="M86.386 29.178c-0.42-0.738-1.356-0.998-2.095-0.566-0.738 0.419-0.998 1.368-0.58 2.095 0.112 0.209 0.236 0.406 0.347 0.615 9.582 17.465 4.2 39.672-12.44 50.808-8.438 5.653-18.524 7.746-28.488 5.924-0.234-0.038-0.456-0.073-0.69-0.124-0.825-0.159-1.638 0.382-1.811 1.207-0.172 0.838 0.37 1.65 1.207 1.824 2.771 0.553 5.542 0.825 8.302 0.825 8.204 0 16.22-2.428 23.204-7.095C91.508 72.521 97.236 48.135 86.386 29.178z" fill="#5d9943" data-fill-palette-color="accent"></path><path d="M25.799 80.183c-1.762-1.405-3.4-2.969-4.89-4.682-1.108-1.256-2.144-2.598-3.079-4.003l-1.281 0.863 1.207-0.986C5.969 53.639 10.772 29.561 28.459 17.71c5.481-3.67 11.788-5.874 18.303-6.429 0.197-0.025 0.395-0.037 0.592-0.05 0.85-0.048 1.49-0.787 1.428-1.638-0.062-0.85-0.801-1.489-1.638-1.429-7.267 0.493-14.312 2.907-20.397 6.983C7.656 27.946 2.458 53.935 15.133 72.989c0.049 0.073 0.099 0.159 0.135 0.222 1.022 1.516 2.131 2.969 3.326 4.323 1.749 1.995 3.695 3.843 5.789 5.455 0.271 0.223 0.604 0.32 0.937 0.32 0.468 0 0.911-0.209 1.219-0.591 0.518-0.677 0.395-1.637-0.271-2.167C26.107 80.428 25.947 80.305 25.799 80.183z" fill="#5d9943" data-fill-palette-color="accent"></path><path d="M64.449 13.917c4.359 1.748 8.326 4.237 11.774 7.403 0.295 0.271 0.678 0.405 1.047 0.405 0.42 0 0.826-0.171 1.134-0.504 0.577-0.616 0.529-1.602-0.099-2.169-3.72-3.423-8.006-6.108-12.711-7.993-0.801-0.32-1.688 0.062-2.009 0.851C63.278 12.71 63.66 13.597 64.449 13.917z" fill="#5d9943" data-fill-palette-color="accent"></path></g><path d="M42.932 69.048c-0.32-1.959-1.798-3.523-3.633-4.028-0.024-0.381-0.049-0.763-0.062-1.145-0.012-0.518-0.012-1.059 0-1.614 0.025-0.565 0.062-1.134 0.099-1.699 0.111-1.184 0.284-2.316 0.505-3.375 0.221-0.998 0.517-2.032 0.862-2.98l0.924-2.144c0.123-0.246 0.234-0.431 0.308-0.566 0-0.013 0.123-0.21 0.136-0.223 3.251-5.319 2.044-12.131-2.599-16.023-0.468-0.395-0.96-0.751-1.502-1.084-1.959-1.206-4.212-1.848-6.504-1.848-4.36 0-8.326 2.229-10.617 5.938-3.215 5.26-2.069 12.169 2.636 16.062 0.013 0.012 0.111 0.099 0.123 0.099l0.099 0.086c0.111 0.111 0.283 0.258 0.493 0.467l1.552 1.713c0.616 0.775 1.231 1.65 1.773 2.55 0.554 0.924 1.084 1.934 1.564 3.017 0.221 0.529 0.443 1.06 0.641 1.577 0.196 0.53 0.369 1.034 0.517 1.54 0.012 0.037 0.024 0.061 0.037 0.099l-0.504 1.649c-1.097 1.121-1.626 2.71-1.355 4.337 0 0.023 0.012 0.048 0.012 0.073 0.395 2.155 2.18 3.843 4.36 4.102 0.197 0.012 0.395 0.025 0.591 0.025 0.271 0 0.542-0.014 0.813-0.062 0.813-0.135 1.564-0.455 2.205-0.937 0.764 0.247 1.564 0.309 2.39 0.174 0.468-0.075 0.911-0.223 1.342-0.42C42.143 73.444 43.289 71.24 42.932 69.048zM38.805 71.622c-0.16 0.085-0.333 0.136-0.517 0.172-0.48 0.074-0.96-0.024-1.355-0.283-0.665-0.419-1.54-0.271-2.032 0.334-0.295 0.38-0.727 0.628-1.194 0.701-0.185 0.037-0.37 0.037-0.554 0.012-0.85-0.098-1.552-0.764-1.688-1.613-0.147-0.888 0.345-1.786 1.195-2.119l0.123-0.048c0.751-0.234 1.194-0.986 1.046-1.763-0.16-0.825-0.369-1.688-0.64-2.548-0.173-0.568-0.357-1.134-0.579-1.726-0.222-0.566-0.456-1.145-0.702-1.725-0.049-0.123-0.111-0.233-0.172-0.344V60.66c-0.493-1.085-1.01-2.095-1.577-3.019-0.616-1.009-1.305-2.007-2.02-2.895l-1.564-1.761-0.234-0.233c-0.259-0.247-0.469-0.444-0.604-0.556l-0.259-0.221c-3.56-2.957-4.421-8.153-1.995-12.107 1.712-2.796 4.693-4.472 7.981-4.472 1.725 0 3.412 0.48 4.89 1.392 0.813 0.493 1.515 1.098 2.106 1.774 2.661 3.006 3.189 7.501 1.022 11.036-0.012 0.023-0.086 0.135-0.099 0.16l-0.099 0.159c-0.099 0.174-0.246 0.431-0.394 0.727-0.062 0.111-0.111 0.222-0.173 0.346l-0.579 1.317c-0.012 0.013-0.049 0.123-0.062 0.148l-0.271 0.689c-0.382 1.084-0.727 2.254-0.973 3.388-0.258 1.182-0.444 2.449-0.566 3.768-0.049 0.628-0.086 1.244-0.111 1.86-0.012 0.615-0.012 1.22 0 1.799 0.038 0.887 0.099 1.773 0.222 2.636 0.11 0.775 0.776 1.342 1.564 1.33l0.062-1.54 0.074 1.54c0.899 0.05 1.663 0.727 1.811 1.625C40.037 70.402 39.594 71.253 38.805 71.622z" fill="#5d9943" data-fill-palette-color="accent"></path><path d="M57.133 59.588c0.727 1.552 1.934 2.834 3.448 3.635 0.11 0.061 0.233 0.123 0.344 0.171 1.455 0.679 3.104 0.899 4.682 0.641 0.899 0.333 1.823 0.506 2.783 0.506 0.777 0 1.552-0.124 2.304-0.346 1.639-0.505 3.067-1.527 4.076-2.918 2.181-0.53 4.065-1.984 5.124-3.979 1.097-2.045 1.22-4.484 0.358-6.64 0.368-1.416 0.344-2.895-0.087-4.312-0.604-1.958-1.934-3.571-3.658-4.556-0.542-0.309-1.109-0.555-1.712-0.727-0.543-0.506-1.133-0.936-1.774-1.282-1.527-0.813-3.312-1.096-5.025-0.813-1.612-0.603-3.411-0.664-5.073-0.146-0.702 0.209-1.367 0.518-1.983 0.924-2.647 0.233-5.025 1.798-6.27 4.163-0.702 1.305-1.01 2.746-0.911 4.226-1.244 1.944-1.589 4.358-0.911 6.589C53.513 56.879 55.088 58.652 57.133 59.588zM57.379 45.35c0.813-1.526 2.39-2.5 4.126-2.562 0.32 0 0.616-0.111 0.875-0.295 0.443-0.333 0.923-0.58 1.44-0.728 1.121-0.346 2.315-0.271 3.4 0.21 0.308 0.147 0.652 0.171 0.984 0.098 1.146-0.271 2.34-0.122 3.375 0.432 0.469 0.246 0.899 0.579 1.282 0.997 0.209 0.223 0.491 0.382 0.786 0.444 0.358 0.087 0.715 0.209 1.036 0.369 1.206 0.566 2.142 1.639 2.536 2.932 0.296 0.984 0.284 2.021-0.062 3.004-0.136 0.395-0.11 0.825 0.074 1.196 0.69 1.392 0.666 3.042-0.061 4.409-0.715 1.366-2.021 2.278-3.561 2.512-0.456 0.062-0.862 0.333-1.097 0.728-0.616 1.034-1.588 1.798-2.721 2.155-1.121 0.333-2.329 0.259-3.399-0.223-0.197-0.099-0.42-0.135-0.629-0.135-0.124 0-0.247 0.013-0.357 0.036-0.874 0.21-1.772 0.174-2.623-0.11-0.259-0.085-0.518-0.197-0.764-0.32-1.047-0.553-1.848-1.49-2.267-2.623-0.16-0.432-0.505-0.764-0.936-0.924-1.466-0.517-2.574-1.663-3.03-3.141-0.443-1.479-0.159-3.104 0.788-4.335 0.247-0.333 0.357-0.752 0.296-1.158C56.727 47.283 56.899 46.262 57.379 45.35z" fill="#5d9943" data-fill-palette-color="accent"></path></svg></g></svg></g></svg></g><defs></defs></svg><rect width="395.52" height="89.84827788501204" fill="none" stroke="none" visibility="hidden"></rect></g></svg></g></svg>